<svg xmlns="http://www.w3.org/2000/svg" xmlns:xlink="http://www.w3.org/1999/xlink" viewBox="0,0,256,256" width="64px" height="64px"><defs><radialGradient cx="248.889" cy="192.111" r="185.701" gradientUnits="userSpaceOnUse" id="color-1"><stop offset="0" stop-color="#191e28"></stop><stop offset="0.193" stop-color="#bbf1ff"></stop><stop offset="0.703" stop-color="#d7f8ff"></stop><stop offset="1" stop-color="#e1faff"></stop></radialGradient><linearGradient x1="32" y1="8" x2="32" y2="55.33" gradientUnits="userSpaceOnUse" id="color-2"><stop offset="0" stop-color="#074d5e"></stop><stop offset="0.176" stop-color="#074d5e"></stop><stop offset="0.605" stop-color="#042331"></stop><stop offset="1" stop-color="#042331"></stop></linearGradient></defs><g fill="none" fill-rule="nonzero" stroke="none" stroke-width="1" stroke-linecap="butt" stroke-linejoin="miter" stroke-miterlimit="10" stroke-dasharray="" stroke-dashoffset="0" font-family="none" font-weight="none" font-size="none" text-anchor="none" style="mix-blend-mode: normal"><g transform="scale(4,4)"><path d="M59.5,61v0c2.485,0 4.5,-2.015 4.5,-4.5v0c0,-2.485 -2.015,-4.5 -4.5,-4.5v0c-2.485,0 -4.5,2.015 -4.5,4.5v0c0,2.485 2.015,4.5 4.5,4.5zM0,24v0c0,-2.761 2.239,-5 5,-5h5c2.761,0 5,-2.238 5,-5v0c0,-2.762 -2.238,-5 -5,-5h-0.566c-1.914,0 -3.434,-1.52 -3.434,-3.395v-0.105c0,-1.933 1.567,-3.5 3.5,-3.5h43c1.926,0 3.49,1.556 3.5,3.483v0.017c0.01,1.93 -1.553,3.5 -3.483,3.5h-0.517c-2.209,0 -4,1.791 -4,4v0c0,2.209 1.791,4 4,4h7c2.761,0 5,2.239 5,5v0c0,2.761 -2.239,5 -5,5h-1c-2.209,0 -4,1.791 -4,4v0c0,2.209 1.791,4 4,4h0.5c3.038,0 5.5,2.462 5.5,5.5v0c0,3.038 -2.462,5.5 -5.5,5.5h-11.5c-1.657,0 -3,1.343 -3,3v0c0,1.657 1.343,3 3,3h1.5c2.485,0 4.5,2.015 4.5,4.5v0c0,2.485 -2.015,4.5 -4.5,4.5h-17.5h-22c-2.209,0 -4,-1.791 -4,-4v0c0,-2.209 1.791,-4 4,-4h1.5c1.933,0 3.5,-1.567 3.5,-3.5v0c0,-1.933 -1.567,-3.5 -3.5,-3.5h-6.5c-2.209,0 -4,-1.791 -4,-4v0c0,-2.209 1.791,-4 4,-4h1.5c2.485,0 4.5,-2.015 4.5,-4.5v0c0,-2.485 -2.015,-4.5 -4.5,-4.5h-0.5c-2.761,0 -5,-2.239 -5,-5z" fill="url(#color-1)"></path><path d="M18,8h28c5.523,0 10,4.477 10,10v28c0,5.523 -4.477,10 -10,10h-28c-5.523,0 -10,-4.477 -10,-10v-28c0,-5.523 4.477,-10 10,-10z" fill="url(#color-2)"></path><path d="M47.5,29h-31c-0.276,0 -0.5,0.224 -0.5,0.5v18c0,0.828 0.672,1.5 1.5,1.5h29c0.828,0 1.5,-0.672 1.5,-1.5v-18c0,-0.276 -0.224,-0.5 -0.5,-0.5zM37.775,31l-3.5,3h-2.275l3.5,-3zM18,31h2.45l-2.45,1.75zM20.45,34l3.5,-3h2.275l-3.5,3zM26.225,34l3.5,-3h2.275l-3.5,3zM29,44v-7l6.5,3.5zM37.775,34l3.5,-3h2.275l-3.5,3zM46,34h-2.45l2.45,-1.75z" fill="#ffffff"></path><path d="M46.554,18.824l-1.054,-3.699c-0.042,-0.149 -0.111,-0.282 -0.192,-0.406c-0.015,-0.023 -0.028,-0.046 -0.044,-0.068c-0.083,-0.113 -0.18,-0.213 -0.289,-0.298c-0.021,-0.016 -0.043,-0.029 -0.065,-0.045c-0.114,-0.079 -0.236,-0.147 -0.368,-0.193c-0.005,-0.002 -0.009,-0.004 -0.014,-0.006c-0.135,-0.045 -0.278,-0.064 -0.422,-0.069c-0.017,-0.001 -0.032,-0.008 -0.049,-0.008c-0.014,0 -0.028,0.005 -0.042,0.006c-0.122,0.003 -0.245,0.017 -0.368,0.051l-27.834,7.878c-0.797,0.226 -1.26,1.055 -1.035,1.852l1.054,3.699c0.028,0.1 0.091,0.176 0.164,0.239c0.014,0.012 0.024,0.023 0.039,0.033c0.076,0.052 0.163,0.081 0.257,0.086c0.008,0 0.013,0.007 0.021,0.007c0.045,0 0.091,-0.006 0.136,-0.019l29.759,-8.422c0.267,-0.076 0.422,-0.352 0.346,-0.618zM17.196,25.133l-0.476,-1.684l2.358,-0.666zM22.361,24.632l-2.19,0.62l2.274,-3.421l2.189,-0.619zM27.92,23.059l-2.19,0.62l2.273,-3.419l2.189,-0.619zM33.479,21.486l-2.19,0.62l2.271,-3.416l2.189,-0.619zM39.038,19.912l-2.19,0.62l2.269,-3.413l2.189,-0.619zM42.482,18.938l1.522,-1.901l0.385,1.361z" fill="#ffffff"></path></g></g></svg>